<svg width="46" height="46" viewBox="0 0 46 46" fill="none" xmlns="http://www.w3.org/2000/svg">
<path d="M26.8094 0.324875C25.5508 0.111052 24.2766 0.00238478 23 0C10.2925 0 0 10.2925 0 23C0 27.8789 1.53381 32.3869 4.11125 36.1258C5.6925 33.8028 9.33944 32.2 13.5671 32.2C16.4709 32.2 19.0972 32.9662 20.9789 34.1981L26.8094 0.324875ZM39.031 6.52769C43.0028 15.3108 39.5183 20.0028 39.5183 20.0028C36.823 11.8953 29.0174 10.7108 29.0174 10.7108C29.0174 10.7108 23.8826 38.3798 23.8826 38.7277C23.8826 41.7249 20.7 44.2577 16.3789 45.0239C18.5266 45.6702 20.7572 45.999 23 46C35.7075 46 46 35.7075 46 23C46 16.5413 43.3277 10.7094 39.031 6.52769Z" fill="#F56464"/>
</svg>
