<svg width="361" height="299" viewBox="0 0 361 299" fill="none" xmlns="http://www.w3.org/2000/svg">
<path d="M343.625 141.125C343.625 142.921 341.805 144.375 339.562 144.375C337.32 144.375 335.5 142.921 335.5 141.125C335.5 139.329 337.32 137.875 339.562 137.875C341.805 137.875 343.625 139.329 343.625 141.125Z" fill="#FFB7B7"/>
<path fill-rule="evenodd" clip-rule="evenodd" d="M343.625 124.875V141.125H342V124.875H343.625Z" fill="#FFB7B7"/>
<path d="M342 124.583C342 124.207 342.131 123.843 342.369 123.553C342.607 123.262 342.938 123.064 343.306 122.99L348.181 122.015C348.417 121.968 348.66 121.974 348.894 122.032C349.127 122.09 349.344 122.199 349.53 122.352C349.716 122.504 349.866 122.696 349.969 122.913C350.071 123.13 350.125 123.367 350.125 123.608V126.5L342 128.125V124.583Z" fill="#FFB7B7"/>
<path d="M226.625 130.125C226.625 131.921 224.805 133.375 222.562 133.375C220.32 133.375 218.5 131.921 218.5 130.125C218.5 128.329 220.32 126.875 222.562 126.875C224.805 126.875 226.625 128.329 226.625 130.125Z" fill="#FFB7B7"/>
<path fill-rule="evenodd" clip-rule="evenodd" d="M226.625 113.875V130.125H225V113.875H226.625Z" fill="#FFB7B7"/>
<path d="M225 113.583C225 113.207 225.131 112.843 225.369 112.553C225.607 112.262 225.938 112.064 226.306 111.99L231.181 111.015C231.417 110.968 231.66 110.974 231.894 111.032C232.127 111.09 232.344 111.199 232.53 111.352C232.716 111.504 232.866 111.696 232.969 111.913C233.071 112.13 233.125 112.367 233.125 112.608V115.5L225 117.125V113.583Z" fill="#FFB7B7"/>
<path d="M353.625 37.125C353.625 38.9206 351.805 40.375 349.562 40.375C347.32 40.375 345.5 38.9206 345.5 37.125C345.5 35.3294 347.32 33.875 349.562 33.875C351.805 33.875 353.625 35.3294 353.625 37.125Z" fill="#FFB7B7"/>
<path fill-rule="evenodd" clip-rule="evenodd" d="M353.625 20.875V37.125H352V20.875H353.625Z" fill="#FFB7B7"/>
<path d="M352 20.5825C352 20.207 352.131 19.8431 352.369 19.5528C352.607 19.2625 352.938 19.0636 353.306 18.99L358.181 18.015C358.417 17.9679 358.66 17.9737 358.894 18.0319C359.127 18.0901 359.344 18.1992 359.53 18.3516C359.716 18.5039 359.866 18.6955 359.969 18.9127C360.071 19.1299 360.125 19.3672 360.125 19.6075V22.5L352 24.125V20.5825Z" fill="#FFB7B7"/>
<path d="M107.125 48.1415C107.125 49.9372 105.305 51.3915 103.062 51.3915C100.82 51.3915 99 49.9372 99 48.1415C99 46.3459 100.82 44.8915 103.062 44.8915C105.305 44.8915 107.125 46.3459 107.125 48.1415Z" fill="#FFB7B7"/>
<path fill-rule="evenodd" clip-rule="evenodd" d="M107.125 31.8915V48.1415H105.5V31.8915H107.125Z" fill="#FFB7B7"/>
<path d="M105.5 31.599C105.5 31.2235 105.631 30.8596 105.869 30.5693C106.107 30.279 106.438 30.0801 106.806 30.0065L111.681 29.0315C111.917 28.9844 112.16 28.9902 112.394 29.0484C112.627 29.1066 112.844 29.2158 113.03 29.3681C113.216 29.5204 113.366 29.712 113.469 29.9292C113.571 30.1464 113.625 30.3837 113.625 30.624V33.5165L105.5 35.1415V31.599Z" fill="#FFB7B7"/>
<path d="M83.625 292.125C83.625 293.921 81.805 295.375 79.5625 295.375C77.32 295.375 75.5 293.921 75.5 292.125C75.5 290.329 77.32 288.875 79.5625 288.875C81.805 288.875 83.625 290.329 83.625 292.125Z" fill="#FFB7B7"/>
<path fill-rule="evenodd" clip-rule="evenodd" d="M83.625 275.875V292.125H82V275.875H83.625Z" fill="#FFB7B7"/>
<path d="M82 275.583C82.0002 275.207 82.1305 274.843 82.3687 274.553C82.6069 274.262 82.9383 274.064 83.3065 273.99L88.1815 273.015C88.4172 272.968 88.6603 272.974 88.8935 273.032C89.1267 273.09 89.344 273.199 89.5299 273.352C89.7158 273.504 89.8656 273.696 89.9685 273.913C90.0714 274.13 90.1249 274.367 90.125 274.608V277.5L82 279.125V275.583Z" fill="#FFB7B7"/>
<path d="M353.625 295.125C353.625 296.921 351.805 298.375 349.562 298.375C347.32 298.375 345.5 296.921 345.5 295.125C345.5 293.329 347.32 291.875 349.562 291.875C351.805 291.875 353.625 293.329 353.625 295.125Z" fill="#FFB7B7"/>
<path fill-rule="evenodd" clip-rule="evenodd" d="M353.625 278.875V295.125H352V278.875H353.625Z" fill="#FFB7B7"/>
<path d="M352 278.583C352 278.207 352.131 277.843 352.369 277.553C352.607 277.262 352.938 277.064 353.306 276.99L358.181 276.015C358.417 275.968 358.66 275.974 358.894 276.032C359.127 276.09 359.344 276.199 359.53 276.352C359.716 276.504 359.866 276.696 359.969 276.913C360.071 277.13 360.125 277.367 360.125 277.608V280.5L352 282.125V278.583Z" fill="#FFB7B7"/>
<path d="M50.625 122.125C50.625 123.921 48.805 125.375 46.5625 125.375C44.32 125.375 42.5 123.921 42.5 122.125C42.5 120.329 44.32 118.875 46.5625 118.875C48.805 118.875 50.625 120.329 50.625 122.125Z" fill="#FFB7B7"/>
<path fill-rule="evenodd" clip-rule="evenodd" d="M50.625 105.875V122.125H49V105.875H50.625Z" fill="#FFB7B7"/>
<path d="M49 105.583C49.0002 105.207 49.1305 104.843 49.3687 104.553C49.6069 104.262 49.9383 104.064 50.3065 103.99L55.1815 103.015C55.4172 102.968 55.6603 102.974 55.8935 103.032C56.1267 103.09 56.344 103.199 56.5299 103.352C56.7158 103.504 56.8656 103.696 56.9685 103.913C57.0714 104.13 57.1249 104.367 57.125 104.608V107.5L49 109.125V105.583Z" fill="#FFB7B7"/>
<path d="M287 114.573C289.206 114.573 291 112.779 291 110.573V100.428L300 103.7V111.13C299.395 110.769 298.704 110.577 298 110.573C295.794 110.573 294 112.367 294 114.573C294 116.779 295.794 118.573 298 118.573C300.206 118.573 302 116.779 302 114.573V103C302 102.795 301.937 102.594 301.819 102.426C301.702 102.258 301.535 102.131 301.342 102.061L290.342 98.0607C290.191 98.0055 290.029 97.9876 289.869 98.0084C289.71 98.0293 289.558 98.0883 289.426 98.1805C289.295 98.2726 289.187 98.3953 289.113 98.5379C289.039 98.6805 289 98.8389 289 98.9997V107.13C288.395 106.769 287.704 106.577 287 106.573C284.794 106.573 283 108.367 283 110.573C283 112.779 284.794 114.573 287 114.573Z" fill="#FFB7B7"/>
<path d="M171 120.573C173.206 120.573 175 118.779 175 116.573V106.428L184 109.7V117.13C183.395 116.769 182.704 116.577 182 116.573C179.794 116.573 178 118.367 178 120.573C178 122.779 179.794 124.573 182 124.573C184.206 124.573 186 122.779 186 120.573V109C186 108.795 185.937 108.594 185.819 108.426C185.702 108.258 185.535 108.131 185.342 108.061L174.342 104.061C174.191 104.006 174.029 103.988 173.869 104.008C173.71 104.029 173.558 104.088 173.426 104.18C173.295 104.273 173.187 104.395 173.113 104.538C173.039 104.681 173 104.839 173 105V113.13C172.395 112.769 171.704 112.577 171 112.573C168.794 112.573 167 114.367 167 116.573C167 118.779 168.794 120.573 171 120.573Z" fill="#FFB7B7"/>
<path d="M288 43.5727C290.206 43.5727 292 41.7787 292 39.5727V29.4277L301 32.6997V40.1297C300.395 39.7692 299.704 39.5769 299 39.5727C296.794 39.5727 295 41.3667 295 43.5727C295 45.7787 296.794 47.5727 299 47.5727C301.206 47.5727 303 45.7787 303 43.5727V31.9997C303 31.7946 302.937 31.5943 302.819 31.4263C302.702 31.2583 302.535 31.1306 302.342 31.0607L291.342 27.0607C291.191 27.0055 291.029 26.9876 290.869 27.0084C290.71 27.0293 290.558 27.0883 290.426 27.1805C290.295 27.2726 290.187 27.3953 290.113 27.5379C290.039 27.6805 290 27.8389 290 27.9997V36.1297C289.395 35.7692 288.704 35.5769 288 35.5727C285.794 35.5727 284 37.3667 284 39.5727C284 41.7787 285.794 43.5727 288 43.5727Z" fill="#FFB7B7"/>
<path d="M28 24.5727C30.206 24.5727 32 22.7787 32 20.5727V10.4277L41 13.6997V21.1297C40.3949 20.7692 39.7044 20.5769 39 20.5727C36.794 20.5727 35 22.3667 35 24.5727C35 26.7787 36.794 28.5727 39 28.5727C41.206 28.5727 43 26.7787 43 24.5727V12.9997C43.0001 12.7946 42.937 12.5943 42.8193 12.4263C42.7016 12.2583 42.5349 12.1306 42.342 12.0607L31.342 8.06073C31.191 8.00553 31.0289 7.98759 30.8695 8.00843C30.71 8.02928 30.558 8.0883 30.4263 8.18047C30.2945 8.27265 30.187 8.39526 30.1128 8.53789C30.0386 8.68052 29.9999 8.83895 30 8.99973V17.1297C29.3949 16.7692 28.7044 16.5769 28 16.5727C25.794 16.5727 24 18.3667 24 20.5727C24 22.7787 25.794 24.5727 28 24.5727Z" fill="#FFB7B7"/>
<path d="M28 282.573C30.206 282.573 32 280.779 32 278.573V268.428L41 271.7V279.13C40.3949 278.769 39.7044 278.577 39 278.573C36.794 278.573 35 280.367 35 282.573C35 284.779 36.794 286.573 39 286.573C41.206 286.573 43 284.779 43 282.573V271C43.0001 270.795 42.937 270.594 42.8193 270.426C42.7016 270.258 42.5349 270.131 42.342 270.061L31.342 266.061C31.191 266.006 31.0289 265.988 30.8695 266.008C30.71 266.029 30.558 266.088 30.4263 266.18C30.2945 266.273 30.187 266.395 30.1128 266.538C30.0386 266.681 29.9999 266.839 30 267V275.13C29.3949 274.769 28.7044 274.577 28 274.573C25.794 274.573 24 276.367 24 278.573C24 280.779 25.794 282.573 28 282.573Z" fill="#FFB7B7"/>
<path d="M297 274.573C299.206 274.573 301 272.779 301 270.573V260.428L310 263.7V271.13C309.395 270.769 308.704 270.577 308 270.573C305.794 270.573 304 272.367 304 274.573C304 276.779 305.794 278.573 308 278.573C310.206 278.573 312 276.779 312 274.573V263C312 262.795 311.937 262.594 311.819 262.426C311.702 262.258 311.535 262.131 311.342 262.061L300.342 258.061C300.191 258.006 300.029 257.988 299.869 258.008C299.71 258.029 299.558 258.088 299.426 258.18C299.295 258.273 299.187 258.395 299.113 258.538C299.039 258.681 299 258.839 299 259V267.13C298.395 266.769 297.704 266.577 297 266.573C294.794 266.573 293 268.367 293 270.573C293 272.779 294.794 274.573 297 274.573Z" fill="#FFB7B7"/>
<path d="M4 104.573C6.206 104.573 8 102.779 8 100.573V90.4277L17 93.6997V101.13C16.3949 100.769 15.7044 100.577 15 100.573C12.794 100.573 11 102.367 11 104.573C11 106.779 12.794 108.573 15 108.573C17.206 108.573 19 106.779 19 104.573V92.9997C19.0001 92.7946 18.937 92.5943 18.8193 92.4263C18.7016 92.2583 18.5349 92.1306 18.342 92.0607L7.342 88.0607C7.19099 88.0055 7.02889 87.9876 6.86947 88.0084C6.71005 88.0293 6.55801 88.0883 6.42627 88.1805C6.29454 88.2726 6.187 88.3953 6.11279 88.5379C6.03857 88.6805 5.99988 88.8389 6 88.9997V97.1297C5.39487 96.7692 4.70439 96.5769 4 96.5727C1.794 96.5727 0 98.3667 0 100.573C0 102.779 1.794 104.573 4 104.573Z" fill="#FFB7B7"/>
<path d="M353.625 202.125C353.625 203.921 351.805 205.375 349.562 205.375C347.32 205.375 345.5 203.921 345.5 202.125C345.5 200.329 347.32 198.875 349.562 198.875C351.805 198.875 353.625 200.329 353.625 202.125Z" fill="#FFB7B7"/>
<path fill-rule="evenodd" clip-rule="evenodd" d="M353.625 185.875V202.125H352V185.875H353.625Z" fill="#FFB7B7"/>
<path d="M352 185.583C352 185.207 352.131 184.843 352.369 184.553C352.607 184.262 352.938 184.064 353.306 183.99L358.181 183.015C358.417 182.968 358.66 182.974 358.894 183.032C359.127 183.09 359.344 183.199 359.53 183.352C359.716 183.504 359.866 183.696 359.969 183.913C360.071 184.13 360.125 184.367 360.125 184.608V187.5L352 189.125V185.583Z" fill="#FFB7B7"/>
<path d="M139.625 199.125C139.625 200.921 137.805 202.375 135.562 202.375C133.32 202.375 131.5 200.921 131.5 199.125C131.5 197.329 133.32 195.875 135.562 195.875C137.805 195.875 139.625 197.329 139.625 199.125Z" fill="#FFB7B7"/>
<path fill-rule="evenodd" clip-rule="evenodd" d="M139.625 182.875V199.125H138V182.875H139.625Z" fill="#FFB7B7"/>
<path d="M138 182.583C138 182.207 138.131 181.843 138.369 181.553C138.607 181.262 138.938 181.064 139.306 180.99L144.181 180.015C144.417 179.968 144.66 179.974 144.894 180.032C145.127 180.09 145.344 180.199 145.53 180.352C145.716 180.504 145.866 180.696 145.969 180.913C146.071 181.13 146.125 181.367 146.125 181.608V184.5L138 186.125V182.583Z" fill="#FFB7B7"/>
<path d="M244.625 270.125C244.625 271.921 242.805 273.375 240.562 273.375C238.32 273.375 236.5 271.921 236.5 270.125C236.5 268.329 238.32 266.875 240.562 266.875C242.805 266.875 244.625 268.329 244.625 270.125Z" fill="#FFB7B7"/>
<path fill-rule="evenodd" clip-rule="evenodd" d="M244.625 253.875V270.125H243V253.875H244.625Z" fill="#FFB7B7"/>
<path d="M243 253.583C243 253.207 243.131 252.843 243.369 252.553C243.607 252.262 243.938 252.064 244.306 251.99L249.181 251.015C249.417 250.968 249.66 250.974 249.894 251.032C250.127 251.09 250.344 251.199 250.53 251.352C250.716 251.504 250.866 251.696 250.969 251.913C251.071 252.13 251.125 252.367 251.125 252.608V255.5L243 257.125V253.583Z" fill="#FFB7B7"/>
<path d="M236.125 23.1415C236.125 24.9372 234.305 26.3915 232.062 26.3915C229.82 26.3915 228 24.9372 228 23.1415C228 21.3459 229.82 19.8915 232.062 19.8915C234.305 19.8915 236.125 21.3459 236.125 23.1415Z" fill="#FFB7B7"/>
<path fill-rule="evenodd" clip-rule="evenodd" d="M236.125 6.89153V23.1415H234.5V6.89153H236.125Z" fill="#FFB7B7"/>
<path d="M234.5 6.59902C234.5 6.22349 234.631 5.85964 234.869 5.56931C235.107 5.27899 235.438 5.08012 235.806 5.00652L240.681 4.03152C240.917 3.98442 241.16 3.99017 241.394 4.04837C241.627 4.10656 241.844 4.21575 242.03 4.36807C242.216 4.52039 242.366 4.71204 242.469 4.92922C242.571 5.1464 242.625 5.3837 242.625 5.62402V8.51652L234.5 10.1415V6.59902Z" fill="#FFB7B7"/>
<path d="M268 184.573C270.206 184.573 272 182.779 272 180.573V170.428L281 173.7V181.13C280.395 180.769 279.704 180.577 279 180.573C276.794 180.573 275 182.367 275 184.573C275 186.779 276.794 188.573 279 188.573C281.206 188.573 283 186.779 283 184.573V173C283 172.795 282.937 172.594 282.819 172.426C282.702 172.258 282.535 172.131 282.342 172.061L271.342 168.061C271.191 168.006 271.029 167.988 270.869 168.008C270.71 168.029 270.558 168.088 270.426 168.18C270.295 168.273 270.187 168.395 270.113 168.538C270.039 168.681 270 168.839 270 169V177.13C269.395 176.769 268.704 176.577 268 176.573C265.794 176.573 264 178.367 264 180.573C264 182.779 265.794 184.573 268 184.573Z" fill="#FFB7B7"/>
<path d="M84 189.573C86.206 189.573 88 187.779 88 185.573V175.428L97 178.7V186.13C96.3949 185.769 95.7044 185.577 95 185.573C92.794 185.573 91 187.367 91 189.573C91 191.779 92.794 193.573 95 193.573C97.206 193.573 99 191.779 99 189.573V178C99.0001 177.795 98.937 177.594 98.8193 177.426C98.7016 177.258 98.5349 177.131 98.342 177.061L87.342 173.061C87.191 173.006 87.0289 172.988 86.8695 173.008C86.71 173.029 86.558 173.088 86.4263 173.18C86.2945 173.273 86.187 173.395 86.1128 173.538C86.0386 173.681 85.9999 173.839 86 174V182.13C85.3949 181.769 84.7044 181.577 84 181.573C81.794 181.573 80 183.367 80 185.573C80 187.779 81.794 189.573 84 189.573Z" fill="#FFB7B7"/>
<path d="M152 260.573C154.206 260.573 156 258.779 156 256.573V246.428L165 249.7V257.13C164.395 256.769 163.704 256.577 163 256.573C160.794 256.573 159 258.367 159 260.573C159 262.779 160.794 264.573 163 264.573C165.206 264.573 167 262.779 167 260.573V249C167 248.795 166.937 248.594 166.819 248.426C166.702 248.258 166.535 248.131 166.342 248.061L155.342 244.061C155.191 244.006 155.029 243.988 154.869 244.008C154.71 244.029 154.558 244.088 154.426 244.18C154.295 244.273 154.187 244.395 154.113 244.538C154.039 244.681 154 244.839 154 245V253.13C153.395 252.769 152.704 252.577 152 252.573C149.794 252.573 148 254.367 148 256.573C148 258.779 149.794 260.573 152 260.573Z" fill="#FFB7B7"/>
<path d="M152 16.5727C154.206 16.5727 156 14.7787 156 12.5727V2.42773L165 5.69973V13.1297C164.395 12.7692 163.704 12.5769 163 12.5727C160.794 12.5727 159 14.3667 159 16.5727C159 18.7787 160.794 20.5727 163 20.5727C165.206 20.5727 167 18.7787 167 16.5727V4.99973C167 4.79456 166.937 4.59433 166.819 4.4263C166.702 4.25828 166.535 4.13063 166.342 4.06073L155.342 0.0607296C155.191 0.00552656 155.029 -0.0124136 154.869 0.00843318C154.71 0.0292799 154.558 0.0882976 154.426 0.180473C154.295 0.272648 154.187 0.395258 154.113 0.537886C154.039 0.680515 154 0.838949 154 0.999729V9.12973C153.395 8.76919 152.704 8.57689 152 8.57273C149.794 8.57273 148 10.3667 148 12.5727C148 14.7787 149.794 16.5727 152 16.5727Z" fill="#FFB7B7"/>
</svg>
