<svg width="21" height="19" viewBox="0 0 21 19" fill="none" xmlns="http://www.w3.org/2000/svg">
<path d="M18.8333 13H12.9875L14.1573 16.367C14.3677 16.975 14.2614 17.649 13.8708 18.169C13.4802 18.689 12.8469 19 12.1791 19H10.5C10.1906 19 9.8979 18.868 9.69894 18.64L4.8031 13H2.16665C1.01769 13 0.083313 12.103 0.083313 11L0.083313 2C0.083313 0.896999 1.01769 0 2.16665 0L16.0281 0C16.4519 0.0013504 16.8654 0.12616 17.2137 0.357924C17.5621 0.589687 17.829 0.917492 17.9791 1.298L20.851 8.649C20.8946 8.76128 20.9169 8.88017 20.9166 9L20.9166 11C20.9166 12.103 19.9823 13 18.8333 13ZM2.16665 11L4.24998 11L4.24998 2H2.16665L2.16665 11ZM18.8333 9.181L16.0281 2L6.33331 2L6.33331 11.638L10.9875 17H12.1812L10.5541 12.317C10.5013 12.1667 10.4866 12.0064 10.5112 11.8496C10.5357 11.6927 10.5989 11.5437 10.6955 11.415C10.792 11.2862 10.9191 11.1814 11.0663 11.1092C11.2134 11.0371 11.3764 10.9996 11.5416 11L18.8333 11L18.8333 9.181Z" fill="#7B1818"/>
</svg>
