<svg width="21" height="19" viewBox="0 0 21 19" fill="none" xmlns="http://www.w3.org/2000/svg">
<path d="M18.8333 6H12.9875L14.1573 2.633C14.3677 2.025 14.2615 1.351 13.8708 0.831C13.4802 0.311 12.8469 0 12.1792 0H10.5C10.1906 0 9.89793 0.132 9.69897 0.36L4.80314 6H2.16668C1.01772 6 0.0833435 6.897 0.0833435 8V17C0.0833435 18.103 1.01772 19 2.16668 19H16.0281C16.452 18.9986 16.8654 18.8738 17.2138 18.6421C17.5621 18.4103 17.829 18.0825 17.9792 17.702L20.8511 10.351C20.8947 10.2387 20.9169 10.1198 20.9167 10V8C20.9167 6.897 19.9823 6 18.8333 6ZM2.16668 8H4.25001V17H2.16668V8ZM18.8333 9.819L16.0281 17H6.33334V7.362L10.9875 2H12.1813L10.5542 6.683C10.5014 6.83331 10.4866 6.99355 10.5112 7.15043C10.5358 7.3073 10.599 7.45629 10.6955 7.58504C10.792 7.71379 10.9192 7.8186 11.0663 7.89076C11.2135 7.96293 11.3764 8.00037 11.5417 8H18.8333V9.819Z" fill="#4D8D4B"/>
</svg>
